<?xml version="1.0" encoding="UTF-8" standalone="no"?>
<svg
   width="494"
   height="264"
   viewBox="0 0 494 264"
   fill="none"
   version="1.1"
   id="svg23"
   sodipodi:docname="Frame 151.svg"
   inkscape:version="1.2.2 (732a01da63, 2022-12-09)"
   xmlns:inkscape="http://www.inkscape.org/namespaces/inkscape"
   xmlns:sodipodi="http://sodipodi.sourceforge.net/DTD/sodipodi-0.dtd"
   xmlns="http://www.w3.org/2000/svg"
   xmlns:svg="http://www.w3.org/2000/svg">
  <defs
     id="defs27" />
  <sodipodi:namedview
     id="namedview25"
     pagecolor="#505050"
     bordercolor="#eeeeee"
     borderopacity="1"
     inkscape:showpageshadow="0"
     inkscape:pageopacity="0"
     inkscape:pagecheckerboard="0"
     inkscape:deskcolor="#505050"
     showgrid="false"
     inkscape:zoom="4.1742424"
     inkscape:cx="246.99093"
     inkscape:cy="112.83485"
     inkscape:window-width="2560"
     inkscape:window-height="1334"
     inkscape:window-x="-11"
     inkscape:window-y="-11"
     inkscape:window-maximized="1"
     inkscape:current-layer="svg23" />
  <g
     id="g290">
    <path
       class="matter-path"
       id="rect19"
       style="fill:#ffcc00"
       transform="rotate(10.7216 33.9019 0.12207)"
       d="m 123.5084,0.12207 h 288.75801 c 49.642,0 89.6065,39.964498 89.6065,89.606499 0,49.642001 -39.9645,89.606501 -89.6065,89.606501 H 123.5084 c -49.642,0 -89.606499,-39.9645 -89.606499,-89.606501 0,-49.642001 39.964499,-89.606499 89.606499,-89.606499 z" />
    <path
       d="M104.86 97.1227L108.792 76.354L116.118 77.7411C122.278 78.9074 125.232 83.3876 123.994 89.9219L123.989 89.9507C122.746 96.5138 118.375 99.6816 112.186 98.5098L104.86 97.1227ZM108.613 94.9409L112.412 95.6604C116.816 96.4942 119.758 94.2634 120.688 89.3554L120.693 89.3267C121.617 84.4475 119.665 81.2901 115.29 80.4616L111.49 79.7422L108.613 94.9409ZM128.83 83.562C127.822 83.3713 127.169 82.4127 127.354 81.434C127.542 80.4409 128.501 79.7875 129.508 79.9782C130.53 80.1717 131.169 81.1276 130.981 82.1207C130.796 83.0994 129.852 83.7555 128.83 83.562ZM123.967 100.74L126.834 85.5993L129.943 86.188L127.076 101.329L123.967 100.74ZM129.401 101.769L132.268 86.6282L135.377 87.2169L134.886 89.8075L134.958 89.8212C135.783 88.1435 137.259 87.2751 138.986 87.6021C139.433 87.6866 139.808 87.8321 140.044 87.9216L139.496 90.8146C139.271 90.6675 138.737 90.492 138.133 90.3775C136.132 89.9987 134.647 91.0741 134.219 93.3338L132.51 102.358L129.401 101.769ZM143.181 86.2793C142.174 86.0886 141.52 85.13 141.706 84.1512C141.894 83.1582 142.852 82.5048 143.86 82.6955C144.882 82.889 145.521 83.8449 145.332 84.838C145.147 85.8167 144.203 86.4728 143.181 86.2793ZM138.318 103.458L141.185 88.3166L144.294 88.9052L141.427 104.046L138.318 103.458ZM149.376 111.083C145.49 110.347 143.37 108.082 143.348 105.677L143.358 105.545L146.438 106.128L146.474 106.254C146.709 107.298 147.893 108.208 149.836 108.576C152.312 109.044 153.93 107.979 154.33 105.863L154.723 103.791L154.651 103.777C153.477 105.254 151.551 105.978 149.377 105.567C145.578 104.847 143.637 101.394 144.531 96.6729L144.534 96.6585C145.433 91.9089 148.53 89.4092 152.373 90.1368C154.503 90.5401 155.955 92.0077 156.523 93.8894L156.595 93.903L157.083 91.3267L160.206 91.9181L157.418 106.642C156.764 110.096 153.651 111.892 149.376 111.083ZM150.735 103.2C153.11 103.649 155.072 101.949 155.663 98.8253L155.666 98.8109C156.254 95.7021 155.036 93.399 152.675 92.9521C150.214 92.4861 148.298 94.1807 147.707 97.3039L147.704 97.3183C147.104 100.485 148.274 102.734 150.735 103.2ZM165.94 109.001C161.493 108.159 159.376 104.612 160.281 99.8339L160.284 99.8195C161.18 95.0843 164.514 92.4356 168.76 93.2396C173.006 94.0435 175.033 97.588 174.172 102.136L173.973 103.187L163.251 101.157C162.766 104.032 164.019 105.998 166.494 106.467C168.337 106.816 169.74 106.097 170.344 105.034L170.409 104.927L173.359 105.486L173.3 105.639C172.356 107.949 169.61 109.696 165.94 109.001ZM168.292 95.7898C166.277 95.4083 164.464 96.4813 163.711 98.9626L171.31 100.401C171.547 97.733 170.322 96.174 168.292 95.7898ZM173.907 110.196L174.286 108.196L184.383 99.1197L184.394 99.0621L176.363 97.5415L176.831 95.0659L188.417 97.2597L188.014 99.3898L178.14 108.389L178.129 108.446L186.103 109.956L185.637 112.417L173.907 110.196ZM188.702 105.722L189.233 102.915L198.488 104.668L197.957 107.474L188.702 105.722ZM203.126 115.729L200.538 99.5546L203.848 100.181L205.356 113.005L205.428 113.019L211.52 101.634L214.758 102.247L206.465 116.361L203.126 115.729ZM218.664 118.984C214.317 118.161 212.052 114.616 212.973 109.751L212.978 109.722C213.894 104.886 217.325 102.435 221.628 103.25C225.946 104.067 228.26 107.592 227.342 112.442L227.337 112.471C226.413 117.35 222.996 119.804 218.664 118.984ZM219.172 116.381C221.604 116.842 223.524 115.208 224.156 111.868L224.161 111.84C224.788 108.529 223.567 106.315 221.135 105.855C218.746 105.402 216.786 107.014 216.159 110.324L216.153 110.353C215.519 113.707 216.739 115.921 219.172 116.381ZM232.518 121.607C229.193 120.977 227.699 118.473 228.359 114.99L230.217 105.174L233.326 105.763L231.582 114.974C231.149 117.263 231.974 118.731 234.133 119.14C236.321 119.554 238.028 118.252 238.475 115.892L240.148 107.054L243.272 107.646L240.405 122.787L237.282 122.196L237.712 119.922L237.64 119.908C236.56 121.284 234.821 122.043 232.518 121.607ZM248.214 124.579C244.429 123.862 242.566 121.571 242.773 118.748L242.783 118.616L245.863 119.199L245.865 119.348C245.888 120.799 246.769 121.815 248.683 122.178C250.555 122.532 251.824 121.967 252.056 120.744L252.059 120.73C252.244 119.751 251.803 119.086 250.251 118.39L247.881 117.36C245.128 116.152 243.965 114.501 244.382 112.299L244.385 112.284C244.897 109.579 247.609 108.169 251.092 108.828C254.676 109.507 256.456 111.916 256.126 114.523L256.108 114.698L253.186 114.145L253.191 114.041C253.254 112.682 252.393 111.564 250.637 111.232C248.967 110.916 247.767 111.508 247.538 112.717L247.535 112.732C247.358 113.667 247.857 114.418 249.41 115.114L251.764 116.142C254.723 117.447 255.671 118.894 255.26 121.067L255.257 121.082C254.734 123.845 251.783 125.255 248.214 124.579ZM266.06 109.545C265.053 109.355 264.399 108.396 264.585 107.417C264.773 106.424 265.731 105.771 266.739 105.962C267.761 106.155 268.4 107.111 268.212 108.104C268.026 109.083 267.082 109.739 266.06 109.545ZM261.198 126.724L264.064 111.583L267.173 112.171L264.306 127.313L261.198 126.724ZM273.08 129.287C268.661 128.45 266.473 124.89 267.391 120.04L267.394 120.025C268.302 115.233 271.698 112.73 276.015 113.547C279.916 114.286 281.802 117.237 281.522 120.136L281.517 120.239L278.552 119.678L278.545 119.558C278.495 118.012 277.58 116.542 275.551 116.158C273.133 115.7 271.183 117.418 270.569 120.656L270.567 120.671C269.94 123.981 271.17 126.227 273.573 126.682C275.487 127.044 276.921 126.168 277.606 124.598L277.642 124.485L280.635 125.052L280.602 125.15C279.696 128.124 276.721 129.976 273.08 129.287ZM285.967 113.315C284.96 113.124 284.306 112.165 284.492 111.187C284.68 110.194 285.638 109.54 286.646 109.731C287.668 109.924 288.307 110.88 288.119 111.873C287.933 112.852 286.989 113.508 285.967 113.315ZM281.104 130.493L283.971 115.352L287.08 115.941L284.213 131.082L281.104 130.493ZM290.688 137.526L294.508 117.347L297.617 117.936L297.124 120.541L297.196 120.554C298.443 118.927 300.32 118.149 302.479 118.558C306.336 119.288 308.24 122.78 307.324 127.616L307.321 127.63C306.408 132.452 303.343 135.017 299.544 134.298C297.399 133.891 295.865 132.468 295.305 130.543L295.233 130.529L293.797 138.114L290.688 137.526ZM299.201 131.46C301.648 131.923 303.55 130.226 304.155 127.03L304.157 127.016C304.768 123.792 303.601 121.529 301.169 121.068C298.808 120.621 296.766 122.352 296.17 125.504L296.167 125.518C295.573 128.656 296.855 131.015 299.201 131.46ZM313.872 137.011C309.526 136.188 307.26 132.643 308.181 127.778L308.187 127.749C309.102 122.913 312.533 120.462 316.837 121.277C321.154 122.094 323.469 125.618 322.55 130.469L322.545 130.498C321.621 135.377 318.205 137.831 313.872 137.011ZM314.38 134.408C316.812 134.869 318.732 133.234 319.364 129.895L319.37 129.867C319.996 126.556 318.776 124.342 316.343 123.882C313.954 123.429 311.994 125.041 311.367 128.351L311.362 128.38C310.727 131.734 311.948 133.948 314.38 134.408ZM327.726 139.634C324.402 139.004 322.908 136.5 323.567 133.017L325.426 123.201L328.535 123.79L326.791 133.001C326.357 135.289 327.182 136.758 329.341 137.166C331.529 137.581 333.237 136.279 333.684 133.919L335.357 125.081L338.48 125.673L335.613 140.814L332.49 140.223L332.92 137.948L332.849 137.935C331.768 139.311 330.029 140.07 327.726 139.634ZM337.809 141.23L340.676 126.089L343.785 126.677L343.294 129.268L343.366 129.281C344.191 127.604 345.667 126.735 347.394 127.062C347.84 127.147 348.215 127.292 348.452 127.382L347.904 130.275C347.678 130.128 347.145 129.952 346.541 129.838C344.54 129.459 343.054 130.534 342.626 132.794L340.918 141.818L337.809 141.23ZM357.299 145.233C353.441 144.503 351.544 140.983 352.457 136.161L352.459 136.147C353.372 131.325 356.449 128.777 360.248 129.496C362.393 129.902 363.916 131.309 364.485 133.265L364.542 133.276L366.095 125.072L369.219 125.664L365.286 146.432L362.163 145.841L362.648 143.279L362.591 143.268C361.349 144.867 359.472 145.644 357.299 145.233ZM358.626 142.711C360.972 143.155 363.014 141.425 363.611 138.273L363.614 138.259C364.208 135.121 362.925 132.761 360.594 132.32C358.147 131.856 356.245 133.554 355.64 136.749L355.637 136.763C355.027 139.987 356.165 142.245 358.626 142.711ZM374.002 148.396C369.555 147.554 367.439 144.007 368.343 139.229L368.346 139.214C369.243 134.479 372.577 131.831 376.823 132.634C381.068 133.438 383.096 136.983 382.235 141.531L382.036 142.582L371.313 140.551C370.828 143.426 372.081 145.393 374.557 145.862C376.399 146.211 377.802 145.492 378.406 144.429L378.471 144.322L381.422 144.881L381.363 145.033C380.418 147.344 377.672 149.091 374.002 148.396ZM376.355 135.185C374.34 134.803 372.526 135.876 371.773 138.357L379.373 139.796C379.61 137.128 378.384 135.569 376.355 135.185ZM387.899 151.027C384.114 150.31 382.252 148.019 382.458 145.196L382.469 145.064L385.549 145.647L385.55 145.796C385.574 147.247 386.455 148.264 388.369 148.626C390.24 148.98 391.51 148.416 391.741 147.192L391.744 147.178C391.929 146.199 391.489 145.534 389.936 144.838L387.567 143.808C384.813 142.601 383.65 140.949 384.067 138.747L384.07 138.733C384.582 136.027 387.294 134.617 390.777 135.277C394.361 135.955 396.141 138.365 395.812 140.971L395.793 141.146L392.872 140.593L392.876 140.49C392.94 139.13 392.078 138.013 390.322 137.68C388.652 137.364 387.452 137.957 387.223 139.166L387.22 139.18C387.043 140.116 387.542 140.866 389.095 141.563L391.45 142.59C394.408 143.896 395.357 145.342 394.945 147.516L394.942 147.53C394.419 150.293 391.469 151.703 387.899 151.027ZM81.5905 111.257C80.583 111.067 79.9296 110.108 80.1149 109.129C80.303 108.136 81.2616 107.483 82.2691 107.673C83.2909 107.867 83.9299 108.823 83.7419 109.816C83.5566 110.795 82.6124 111.451 81.5905 111.257ZM76.7278 128.436L79.5946 113.295L82.7034 113.883L79.8366 129.024L76.7278 128.436ZM82.1619 129.465L85.0287 114.323L88.1376 114.912L87.7043 117.201L87.7762 117.214C88.8594 115.824 90.61 115.082 92.8985 115.515C96.2232 116.145 97.7314 118.652 97.0719 122.135L95.2161 131.936L92.0929 131.345L93.8369 122.134C94.2675 119.86 93.445 118.377 91.2861 117.968C89.0984 117.554 87.3881 118.87 86.9412 121.231L85.2707 130.053L82.1619 129.465ZM98.2466 132.51L100.645 119.845L98.5578 119.449L99.0265 116.974L101.113 117.369L101.419 115.757C101.975 112.821 103.618 111.701 106.698 112.284C107.331 112.404 108.011 112.592 108.415 112.743L107.979 115.046C107.685 114.946 107.302 114.843 106.913 114.77C105.517 114.505 104.727 115.057 104.473 116.395L104.179 117.949L107.259 118.533L106.79 121.008L103.768 120.436L101.37 133.101L98.2466 132.51ZM111.079 135.253C106.732 134.43 104.467 130.885 105.388 126.02L105.393 125.991C106.309 121.156 109.74 118.704 114.043 119.519C118.361 120.336 120.675 123.861 119.757 128.711L119.752 128.74C118.828 133.619 115.411 136.073 111.079 135.253ZM111.587 132.651C114.019 133.111 115.939 131.477 116.571 128.138L116.576 128.109C117.203 124.799 115.982 122.585 113.55 122.124C111.161 121.672 109.201 123.283 108.574 126.594L108.568 126.623C107.933 129.976 109.154 132.19 111.587 132.651ZM119.837 136.598L122.704 121.457L125.813 122.046L125.323 124.636L125.395 124.65C126.219 122.972 127.695 122.104 129.423 122.431C129.869 122.515 130.244 122.661 130.48 122.75L129.932 125.643C129.707 125.496 129.174 125.321 128.569 125.206C126.569 124.828 125.083 125.903 124.655 128.163L122.946 137.187L119.837 136.598ZM128.625 138.262L131.492 123.121L134.601 123.71L134.157 126.056L134.228 126.069C135.176 124.609 136.915 123.85 138.901 124.226C140.988 124.621 142.309 125.989 142.554 128.003L142.626 128.017C143.752 126.322 145.752 125.523 147.911 125.932C150.905 126.498 152.486 128.855 151.911 131.892L149.941 142.298L146.817 141.707L148.646 132.049C149.019 130.077 148.184 128.741 146.342 128.393C144.499 128.044 142.957 129.183 142.594 131.097L140.801 140.568L137.75 139.99L139.622 130.102C139.955 128.346 139.059 127.014 137.303 126.681C135.461 126.332 133.876 127.538 133.505 129.495L131.734 138.851L128.625 138.262ZM156.46 143.816C153.438 143.243 151.76 141.002 152.275 138.282L152.28 138.253C152.779 135.62 155.128 134.395 158.753 134.857L162.915 135.392L163.13 134.255C163.447 132.585 162.558 131.373 160.629 131.008C158.83 130.668 157.561 131.307 157.073 132.467L157.02 132.591L154.084 132.035L154.128 131.879C154.837 129.315 157.476 127.743 161.203 128.448C164.902 129.149 166.878 131.55 166.303 134.587L164.327 145.022L161.204 144.431L161.656 142.041L161.599 142.03C160.413 143.491 158.461 144.194 156.46 143.816ZM155.426 138.804C155.175 140.128 156.111 141.17 157.781 141.486C159.968 141.901 161.904 140.732 162.278 138.76L162.501 137.58L158.758 137.11C156.866 136.87 155.674 137.495 155.431 138.776L155.426 138.804ZM171.719 146.735C168.725 146.168 167.526 144.629 168.098 141.606L169.741 132.927L167.568 132.516L168.037 130.04L170.21 130.452L170.957 126.508L174.137 127.111L173.391 131.054L176.226 131.591L175.757 134.067L172.922 133.53L171.314 142.021C171.023 143.561 171.626 144.153 172.936 144.401C173.267 144.463 173.546 144.486 173.782 144.501L173.327 146.905C172.956 146.894 172.352 146.854 171.719 146.735ZM180.044 129.899C179.036 129.708 178.383 128.749 178.568 127.77C178.756 126.777 179.715 126.124 180.722 126.315C181.744 126.508 182.383 127.464 182.195 128.457C182.01 129.436 181.065 130.092 180.044 129.899ZM175.181 147.077L178.048 131.936L181.157 132.524L178.29 147.666L175.181 147.077ZM187.063 149.64C182.717 148.817 180.451 145.272 181.372 140.407L181.377 140.378C182.293 135.543 185.724 133.091 190.027 133.906C194.345 134.723 196.66 138.248 195.741 143.098L195.736 143.127C194.812 148.006 191.395 150.46 187.063 149.64ZM187.571 147.038C190.003 147.498 191.923 145.864 192.555 142.525L192.561 142.496C193.187 139.186 191.967 136.972 189.534 136.511C187.145 136.059 185.185 137.67 184.558 140.981L184.553 141.01C183.918 144.363 185.139 146.577 187.571 147.038ZM195.822 150.985L198.689 135.844L201.797 136.433L201.364 138.721L201.436 138.735C202.519 137.345 204.27 136.603 206.558 137.036C209.883 137.665 211.391 140.172 210.732 143.655L208.876 153.457L205.753 152.866L207.497 143.654C207.927 141.38 207.105 139.898 204.946 139.489C202.758 139.075 201.048 140.391 200.601 142.751L198.931 151.574L195.822 150.985ZM216.613 155.235C212.828 154.518 210.966 152.228 211.172 149.404L211.182 149.272L214.263 149.855L214.264 150.004C214.288 151.455 215.169 152.472 217.083 152.834C218.954 153.188 220.224 152.624 220.455 151.4L220.458 151.386C220.643 150.407 220.203 149.742 218.65 149.046L216.281 148.016C213.527 146.809 212.364 145.157 212.781 142.955L212.784 142.941C213.296 140.235 216.008 138.825 219.491 139.485C223.075 140.163 224.855 142.573 224.525 145.179L224.507 145.354L221.585 144.801L221.59 144.698C221.654 143.338 220.792 142.221 219.036 141.888C217.366 141.572 216.166 142.165 215.937 143.374L215.934 143.388C215.757 144.324 216.256 145.074 217.809 145.771L220.164 146.798C223.122 148.104 224.07 149.55 223.659 151.724L223.656 151.738C223.133 154.501 220.183 155.911 216.613 155.235ZM228.514 162.393L232.334 142.215L235.443 142.803L234.95 145.408L235.022 145.422C236.269 143.794 238.146 143.017 240.305 143.426C244.162 144.156 246.065 147.647 245.15 152.483L245.147 152.497C244.234 157.319 241.169 159.884 237.369 159.165C235.225 158.759 233.69 157.335 233.13 155.41L233.058 155.397L231.622 162.982L228.514 162.393ZM237.027 156.327C239.474 156.79 241.375 155.093 241.98 151.898L241.983 151.883C242.594 148.66 241.427 146.396 238.995 145.936C236.634 145.489 234.592 147.219 233.995 150.371L233.992 150.385C233.398 153.523 234.681 155.883 237.027 156.327ZM251.655 161.87C247.208 161.028 245.091 157.481 245.996 152.703L245.999 152.688C246.895 147.953 250.229 145.305 254.475 146.109C258.721 146.913 260.748 150.457 259.887 155.005L259.688 156.056L248.966 154.026C248.481 156.901 249.734 158.867 252.209 159.336C254.051 159.685 255.455 158.966 256.059 157.903L256.124 157.796L259.074 158.355L259.015 158.508C258.071 160.818 255.325 162.565 251.655 161.87ZM254.007 148.659C251.992 148.277 250.179 149.35 249.426 151.832L257.025 153.271C257.262 150.602 256.037 149.043 254.007 148.659ZM259.938 163.125L262.805 147.984L265.914 148.573L265.424 151.163L265.496 151.177C266.32 149.499 267.796 148.631 269.524 148.958C269.97 149.042 270.345 149.188 270.581 149.277L270.034 152.17C269.808 152.023 269.275 151.848 268.67 151.733C266.67 151.355 265.184 152.43 264.756 154.69L263.047 163.714L259.938 163.125ZM274.34 166.165C270.554 165.448 268.692 163.158 268.899 160.334L268.909 160.202L271.989 160.785L271.99 160.934C272.014 162.385 272.895 163.402 274.809 163.764C276.68 164.118 277.95 163.554 278.182 162.33L278.184 162.316C278.37 161.337 277.929 160.672 276.376 159.976L274.007 158.946C271.254 157.739 270.09 156.087 270.507 153.885L270.51 153.871C271.022 151.165 273.734 149.755 277.217 150.415C280.801 151.093 282.581 153.503 282.252 156.109L282.233 156.284L279.312 155.731L279.316 155.628C279.38 154.268 278.518 153.151 276.762 152.818C275.093 152.502 273.892 153.095 273.663 154.304L273.661 154.318C273.483 155.254 273.982 156.004 275.535 156.701L277.89 157.728C280.848 159.034 281.797 160.48 281.385 162.654L281.383 162.668C280.859 165.431 277.909 166.841 274.34 166.165ZM288.539 168.853C284.192 168.03 281.926 164.486 282.848 159.621L282.853 159.592C283.769 154.756 287.2 152.305 291.503 153.12C295.821 153.937 298.135 157.461 297.217 162.312L297.211 162.341C296.288 167.22 292.871 169.674 288.539 168.853ZM289.046 166.251C291.479 166.712 293.398 165.077 294.031 161.738L294.036 161.709C294.663 158.399 293.442 156.185 291.01 155.725C288.621 155.272 286.661 156.884 286.034 160.194L286.028 160.223C285.393 163.577 286.614 165.791 289.046 166.251ZM297.297 170.199L300.164 155.058L303.273 155.646L302.84 157.935L302.912 157.948C303.995 156.558 305.745 155.816 308.034 156.249C311.359 156.879 312.867 159.386 312.207 162.869L310.352 172.67L307.228 172.079L308.972 162.868C309.403 160.594 308.58 159.111 306.422 158.702C304.234 158.288 302.524 159.604 302.077 161.965L300.406 170.787L297.297 170.199ZM312.475 173.073L315.342 157.931L318.451 158.52L318.018 160.808L318.09 160.822C319.173 159.432 320.923 158.69 323.212 159.123C326.537 159.753 328.045 162.26 327.385 165.743L325.529 175.544L322.406 174.953L324.15 165.742C324.581 163.468 323.758 161.985 321.6 161.576C319.412 161.162 317.702 162.478 317.255 164.838L315.584 173.661L312.475 173.073ZM332.049 177.062C329.026 176.49 327.349 174.249 327.864 171.529L327.869 171.5C328.368 168.866 330.717 167.641 334.341 168.104L338.504 168.638L338.719 167.501C339.035 165.832 338.147 164.62 336.218 164.255C334.419 163.914 333.15 164.553 332.662 165.713L332.609 165.837L329.673 165.281L329.717 165.126C330.426 162.562 333.065 160.989 336.792 161.695C340.491 162.395 342.467 164.797 341.892 167.833L339.916 178.268L336.793 177.677L337.245 175.288L337.187 175.277C336.002 176.737 334.049 177.441 332.049 177.062ZM331.015 172.051C330.764 173.375 331.7 174.417 333.369 174.733C335.557 175.147 337.493 173.978 337.866 172.006L338.09 170.826L334.347 170.356C332.454 170.117 331.263 170.741 331.02 172.022L331.015 172.051ZM342.169 178.695L346.102 157.926L349.21 158.515L345.278 179.283L342.169 178.695ZM352.581 162.567C351.574 162.376 350.92 161.418 351.106 160.439C351.294 159.446 352.252 158.793 353.26 158.983C354.282 159.177 354.921 160.133 354.733 161.126C354.547 162.104 353.603 162.761 352.581 162.567ZM347.718 179.746L350.585 164.604L353.694 165.193L350.827 180.334L347.718 179.746ZM358.766 182.15C354.981 181.434 353.119 179.143 353.325 176.32L353.335 176.187L356.415 176.771L356.417 176.92C356.44 178.371 357.321 179.387 359.236 179.75C361.107 180.104 362.376 179.539 362.608 178.316L362.611 178.301C362.796 177.323 362.355 176.658 360.803 175.961L358.433 174.931C355.68 173.724 354.517 172.073 354.934 169.871L354.937 169.856C355.449 167.15 358.161 165.741 361.644 166.4C365.228 167.079 367.008 169.488 366.678 172.094L366.66 172.27L363.738 171.717L363.743 171.613C363.807 170.253 362.945 169.136 361.189 168.804C359.519 168.488 358.319 169.08 358.09 170.289L358.087 170.304C357.91 171.239 358.409 171.99 359.962 172.686L362.317 173.713C365.275 175.019 366.223 176.466 365.812 178.639L365.809 178.654C365.286 181.417 362.335 182.826 358.766 182.15ZM376.905 167.814L374.659 167.389L378.036 163.332L381.059 163.904L376.905 167.814ZM372.922 184.831C368.475 183.989 366.358 180.442 367.263 175.664L367.266 175.649C368.162 170.914 371.497 168.266 375.742 169.07C379.988 169.873 382.016 173.418 381.154 177.966L380.956 179.017L370.233 176.987C369.748 179.862 371.001 181.828 373.476 182.297C375.319 182.646 376.722 181.927 377.326 180.864L377.391 180.757L380.341 181.316L380.283 181.469C379.338 183.779 376.592 185.526 372.922 184.831ZM375.274 171.62C373.26 171.238 371.446 172.311 370.693 174.793L378.292 176.231C378.529 173.563 377.304 172.004 375.274 171.62ZM387.611 187.612C383.163 186.77 381.047 183.223 381.952 178.445L381.955 178.431C382.851 173.695 386.185 171.047 390.431 171.851C394.677 172.655 396.704 176.199 395.843 180.747L395.644 181.798L384.922 179.768C384.437 182.643 385.69 184.609 388.165 185.078C390.007 185.427 391.411 184.709 392.015 183.645L392.08 183.538L395.03 184.097L394.971 184.25C394.027 186.561 391.281 188.307 387.611 187.612ZM389.963 174.401C387.948 174.019 386.135 175.092 385.382 177.574L392.981 179.013C393.218 176.344 391.992 174.785 389.963 174.401ZM401.508 190.243C397.723 189.527 395.86 187.236 396.067 184.412L396.077 184.28L399.157 184.863L399.159 185.013C399.182 186.463 400.063 187.48 401.977 187.842C403.848 188.197 405.118 187.632 405.35 186.409L405.353 186.394C405.538 185.416 405.097 184.751 403.544 184.054L401.175 183.024C398.422 181.817 397.259 180.165 397.676 177.963L397.678 177.949C398.191 175.243 400.903 173.833 404.386 174.493C407.969 175.171 409.75 177.581 409.42 180.187L409.402 180.363L406.48 179.809L406.485 179.706C406.548 178.346 405.686 177.229 403.931 176.896C402.261 176.58 401.06 177.173 400.832 178.382L400.829 178.396C400.652 179.332 401.151 180.082 402.703 180.779L405.058 181.806C408.017 183.112 408.965 184.559 408.554 186.732L408.551 186.746C408.028 189.51 405.077 190.919 401.508 190.243Z"
       fill="black"
       id="path21" />
  </g>
</svg>
