<svg width="150" height="150" viewBox="0 0 150 150" fill="none" xmlns="http://www.w3.org/2000/svg">
<rect y="-0.00012207" width="150" height="150" rx="75" fill="#1062FA"/>
<path d="M105.625 65.7031C105.625 84.8438 77.2449 100.337 76.0363 100.977C75.7178 101.148 75.3617 101.238 75 101.238C74.6383 101.238 74.2822 101.148 73.9637 100.977C72.7551 100.337 44.375 84.8438 44.375 65.7031C44.3801 61.2084 46.1678 56.8993 49.3461 53.7211C52.5243 50.5428 56.8334 48.7551 61.3281 48.75C66.9746 48.75 71.9184 51.1781 75 55.2824C78.0816 51.1781 83.0254 48.75 88.6719 48.75C93.1666 48.7551 97.4757 50.5428 100.654 53.7211C103.832 56.8993 105.62 61.2084 105.625 65.7031Z" fill="white"/>
</svg>
