<svg width="478" height="363" viewBox="0 0 478 363" fill="none" xmlns="http://www.w3.org/2000/svg">
<rect y="93.9502" width="433" height="284" rx="40" transform="rotate(-12.5315 0 93.9502)" fill="#F482F4"/>
<path d="M60.0043 143.102L48.068 124.101L51.5142 123.335L60.9431 139.157L61.0146 139.141L62.8536 120.815L66.2998 120.049L63.5362 142.317L60.0043 143.102ZM76.4519 139.761C72.1335 140.721 68.6522 138.358 67.5779 133.525L67.5716 133.497C66.5036 128.692 68.6881 125.085 72.9637 124.135C77.2535 123.181 80.7713 125.506 81.8424 130.325L81.8488 130.353C82.9263 135.201 80.7561 138.804 76.4519 139.761ZM75.8909 137.17C78.3075 136.633 79.426 134.373 78.6886 131.056L78.6823 131.027C77.9512 127.738 75.9556 126.186 73.539 126.723C71.1652 127.251 70.0007 129.505 70.7318 132.794L70.7381 132.823C71.4787 136.155 73.4743 137.707 75.8909 137.17ZM90.216 136.702C86.9128 137.436 84.5517 135.725 83.7826 132.264L81.6149 122.512L84.7036 121.826L86.7378 130.977C87.2431 133.251 88.581 134.274 90.7259 133.797C92.8994 133.314 93.9543 131.444 93.4331 129.099L91.4816 120.319L94.5846 119.629L97.9282 134.672L94.8252 135.362L94.323 133.103L94.2515 133.119C93.802 134.809 92.5039 136.193 90.216 136.702ZM105.81 133.236C102.05 134.071 99.4344 132.702 98.5095 130.026L98.4666 129.901L101.527 129.221L101.587 129.357C102.181 130.681 103.392 131.267 105.294 130.844C107.153 130.431 108.097 129.411 107.826 128.196L107.823 128.181C107.607 127.209 106.94 126.772 105.238 126.745L102.655 126.734C99.6486 126.712 97.9278 125.654 97.4415 123.466L97.4384 123.452C96.8408 120.763 98.7759 118.398 102.236 117.628C105.797 116.837 108.384 118.348 109.11 120.873L109.162 121.041L106.26 121.686L106.223 121.589C105.745 120.315 104.512 119.629 102.767 120.016C101.108 120.385 100.239 121.404 100.506 122.605L100.51 122.619C100.716 123.549 101.471 124.041 103.173 124.068L105.742 124.082C108.975 124.114 110.418 125.069 110.898 127.228L110.901 127.242C111.511 129.988 109.357 132.447 105.81 133.236ZM122.937 129.399C119.934 130.066 117.507 128.67 116.907 125.967L116.9 125.939C116.319 123.322 117.993 121.269 121.506 120.263L125.542 119.111L125.291 117.981C124.922 116.323 123.627 115.56 121.711 115.986C119.924 116.383 119.01 117.472 119.02 118.73L119.02 118.865L116.102 119.513L116.082 119.353C115.721 116.717 117.524 114.23 121.228 113.407C124.903 112.59 127.666 114.017 128.336 117.034L130.641 127.401L127.538 128.091L127.01 125.717L126.953 125.73C126.44 127.54 124.924 128.957 122.937 129.399ZM120.008 125.203C120.301 126.518 121.572 127.106 123.23 126.738C125.404 126.254 126.721 124.416 126.286 122.457L126.025 121.284L122.401 122.33C120.567 122.858 119.719 123.902 120.002 125.174L120.008 125.203ZM136.869 126.017L128.106 112.179L131.395 111.448L137.843 122.634L137.914 122.618L139.016 109.753L142.234 109.038L140.187 125.28L136.869 126.017ZM152.387 122.883C147.969 123.865 144.624 121.442 143.569 116.695L143.566 116.68C142.52 111.976 144.538 108.226 148.756 107.289C152.974 106.351 156.236 108.807 157.241 113.326L157.473 114.37L146.82 116.737C147.509 119.57 149.437 120.883 151.896 120.336C153.727 119.929 154.732 118.715 154.867 117.5L154.885 117.376L157.816 116.724L157.822 116.888C157.867 119.384 156.034 122.072 152.387 122.883ZM149.333 109.816C147.331 110.261 146.089 111.963 146.376 114.54L153.926 112.862C153.091 110.317 151.349 109.368 149.333 109.816ZM160.179 120.836L159.737 118.848L165.431 106.523L165.418 106.466L157.439 108.24L156.892 105.78L168.404 103.222L168.874 105.338L163.355 117.504L163.368 117.561L171.289 115.8L171.833 118.246L160.179 120.836ZM183.97 115.863C180.667 116.597 178.306 114.886 177.537 111.426L175.369 101.673L178.458 100.987L180.492 110.138C180.997 112.412 182.335 113.435 184.48 112.958C186.654 112.475 187.709 110.605 187.187 108.26L185.236 99.4802L188.339 98.7905L191.682 113.834L188.579 114.523L188.077 112.264L188.006 112.28C187.556 113.97 186.258 115.354 183.97 115.863ZM193.864 113.349L190.52 98.3056L193.609 97.6191L194.114 99.8927L194.186 99.8768C194.632 98.172 195.948 96.7992 198.221 96.2938C201.524 95.5596 203.9 97.2675 204.669 100.728L206.834 110.466L203.731 111.156L201.696 102.004C201.194 99.7446 199.853 98.7072 197.708 99.1839C195.535 99.6671 194.483 101.551 195.004 103.897L196.953 112.662L193.864 113.349ZM215.431 108.87C211.012 109.852 207.668 107.429 206.612 102.682L206.609 102.668C205.563 97.9632 207.581 94.2134 211.8 93.2758C216.018 92.3382 219.28 94.7944 220.284 99.313L220.516 100.357L209.863 102.725C210.553 105.558 212.48 106.87 214.94 106.323C216.77 105.916 217.776 104.702 217.911 103.487L217.928 103.363L220.86 102.712L220.866 102.875C220.911 105.371 219.077 108.06 215.431 108.87ZM212.376 95.8036C210.374 96.2486 209.132 97.9503 209.42 100.527L216.97 98.8492C216.134 96.3039 214.393 95.3555 212.376 95.8036ZM226.422 87.8949C225.421 88.1174 224.442 87.4946 224.226 86.5222C224.006 85.5356 224.629 84.5568 225.63 84.3343C226.645 84.1087 227.61 84.7346 227.829 85.7213C228.045 86.6936 227.437 87.6692 226.422 87.8949ZM228.736 105.598L225.392 90.5547L228.481 89.8681L231.824 104.911L228.736 105.598ZM234.135 104.398L230.791 89.3546L233.88 88.6681L234.385 90.9417L234.457 90.9258C234.903 89.221 236.218 87.8482 238.492 87.3428C241.795 86.6086 244.171 88.3165 244.94 91.777L247.104 101.515L244.001 102.205L241.967 93.053C241.465 90.7936 240.124 89.7562 237.979 90.2329C235.805 90.716 234.754 92.6005 235.275 94.9456L237.223 103.711L234.135 104.398ZM250.115 100.846L247.318 88.2621L245.245 88.723L244.698 86.2635L246.772 85.8026L246.416 84.2011C245.767 81.284 246.835 79.6061 249.895 78.926C250.524 78.7861 251.223 78.6908 251.654 78.6701L252.162 80.958C251.852 80.9818 251.46 81.0391 251.074 81.1249C249.687 81.4332 249.178 82.2515 249.474 83.5813L249.817 85.1256L252.877 84.4455L253.424 86.905L250.421 87.5724L253.218 100.156L250.115 100.846ZM262.988 98.2996C258.669 99.2594 255.188 96.897 254.114 92.0638L254.108 92.0352C253.04 87.2305 255.224 83.6238 259.5 82.6734C263.79 81.7199 267.307 84.0442 268.378 88.8632L268.385 88.8918C269.462 93.7393 267.292 97.3429 262.988 98.2996ZM262.427 95.7082C264.844 95.171 265.962 92.9116 265.225 89.5942L265.218 89.5656C264.487 86.2767 262.492 84.7245 260.075 85.2616C257.701 85.7892 256.537 88.0439 257.268 91.3327L257.274 91.3613C258.015 94.6931 260.01 96.2453 262.427 95.7082ZM271.566 96.0778L268.222 81.0347L271.311 80.3482L271.883 82.9221L271.955 82.9062C272.05 81.0393 273.064 79.6586 274.78 79.2772C275.223 79.1786 275.625 79.1643 275.877 79.1532L276.516 82.0274C276.251 81.9813 275.692 82.0306 275.091 82.1641C273.103 82.6059 272.163 84.1805 272.662 86.4255L274.655 95.3912L271.566 96.0778ZM280.297 94.1372L276.953 79.0942L280.042 78.4076L280.56 80.7384L280.631 80.7226C280.925 79.0066 282.223 77.6226 284.197 77.184C286.27 76.7232 288.024 77.4587 289.044 79.2128L289.116 79.1969C289.481 77.1949 291.003 75.6711 293.148 75.1944C296.122 74.5333 298.506 76.0743 299.176 79.0915L301.474 89.4301L298.371 90.1198L296.239 80.5248C295.803 78.5658 294.508 77.6681 292.678 78.075C290.848 78.4818 289.88 80.1374 290.303 82.0393L292.394 91.4483L289.363 92.1221L287.179 82.2984C286.791 80.5538 285.442 79.6832 283.698 80.071C281.867 80.4778 280.887 82.2113 281.319 84.156L283.385 93.4507L280.297 94.1372ZM308.063 88.2506C305.06 88.9181 302.634 87.5216 302.033 84.819L302.027 84.7904C301.445 82.1736 303.12 80.1207 306.633 79.1148L310.668 77.9627L310.417 76.8331C310.049 75.1743 308.754 74.4117 306.838 74.8376C305.05 75.2349 304.137 76.3233 304.146 77.5817L304.146 77.7168L301.229 78.3651L301.208 78.2047C300.848 75.5688 302.651 73.0822 306.354 72.259C310.029 71.4421 312.792 72.8688 313.463 75.886L315.767 86.2531L312.664 86.9428L312.137 84.5691L312.08 84.5818C311.567 86.3915 310.051 87.8088 308.063 88.2506ZM305.135 84.0546C305.427 85.3702 306.698 85.958 308.357 85.5893C310.531 85.1062 311.848 83.2678 311.412 81.3088L311.152 80.1363L307.527 81.1819C305.694 81.7095 304.846 82.7534 305.128 84.026L305.135 84.0546ZM323.235 84.9084C320.261 85.5695 318.551 84.629 317.884 81.6261L315.967 73.0035L313.808 73.4834L313.261 71.0239L315.42 70.544L314.55 66.6259L317.71 65.9235L318.581 69.8416L321.398 69.2154L321.944 71.675L319.127 72.3011L321.002 80.7378C321.343 82.2678 322.131 82.5728 323.432 82.2836C323.761 82.2105 324.026 82.1215 324.249 82.0421L324.779 84.4301C324.435 84.5667 323.864 84.7685 323.235 84.9084ZM324.237 66.1534C323.236 66.3759 322.257 65.7531 322.041 64.7808C321.822 63.7941 322.444 62.8153 323.445 62.5928C324.461 62.3672 325.425 62.9931 325.644 63.9798C325.861 64.9522 325.252 65.9278 324.237 66.1534ZM326.551 83.8562L323.207 68.8132L326.296 68.1267L329.64 83.1697L326.551 83.8562ZM338.48 81.5199C334.162 82.4798 330.68 80.1173 329.606 75.2841L329.6 75.2555C328.532 70.4509 330.716 66.8441 334.992 65.8938C339.282 64.9402 342.799 67.2646 343.87 72.0835L343.877 72.1121C344.954 76.9596 342.784 80.5632 338.48 81.5199ZM337.919 78.9285C340.336 78.3914 341.454 76.132 340.717 72.8145L340.71 72.7859C339.979 69.497 337.984 67.9448 335.567 68.482C333.193 69.0096 332.029 71.2642 332.76 74.5531L332.766 74.5817C333.507 77.9134 335.502 79.4657 337.919 78.9285ZM347.058 79.2981L343.714 64.2551L346.803 63.5685L347.309 65.8421L347.38 65.8263C347.826 64.1214 349.142 62.7486 351.416 62.2432C354.719 61.509 357.094 63.2169 357.863 66.6774L360.028 76.4153L356.925 77.105L354.891 67.9534C354.388 65.6941 353.047 64.6566 350.902 65.1334C348.729 65.6165 347.677 67.5009 348.198 69.846L350.147 78.6116L347.058 79.2981ZM59.4382 161.889C58.4373 162.111 57.4585 161.489 57.2424 160.516C57.0231 159.53 57.6459 158.551 58.6468 158.328C59.6621 158.103 60.6266 158.729 60.8459 159.715C61.062 160.688 60.4535 161.663 59.4382 161.889ZM61.7524 179.592L58.4088 164.549L61.4975 163.862L64.8411 178.905L61.7524 179.592ZM67.1513 178.392L63.8077 163.349L66.8964 162.662L67.4145 164.993L67.486 164.977C67.7798 163.261 69.0778 161.877 71.0512 161.439C73.1246 160.978 74.8787 161.713 75.8988 163.467L75.9703 163.451C76.3357 161.449 77.8577 159.926 80.0026 159.449C82.9769 158.788 85.3603 160.329 86.0309 163.346L88.3288 173.685L85.2259 174.374L83.0932 164.779C82.6577 162.82 81.3628 161.923 79.5325 162.33C77.7021 162.736 76.7346 164.392 77.1573 166.294L79.2487 175.703L76.2172 176.377L74.0337 166.553C73.6459 164.808 72.2969 163.938 70.5524 164.326C68.7221 164.732 67.7418 166.466 68.1741 168.411L70.24 177.705L67.1513 178.392ZM91.5513 178.22L87.0952 158.173L90.1839 157.486L90.7592 160.074L90.8307 160.058C91.3343 158.071 92.7515 156.615 94.8964 156.138C98.7286 155.287 101.856 157.743 102.924 162.548L102.927 162.562C103.991 167.352 102.188 170.919 98.4132 171.758C96.2826 172.232 94.3108 171.53 93.0365 169.982L92.965 169.998L94.64 177.534L91.5513 178.22ZM96.9784 169.286C99.4093 168.746 100.486 166.436 99.7808 163.261L99.7776 163.247C99.0657 160.044 97.1002 158.425 94.6836 158.962C92.3385 159.483 91.1454 161.879 91.8414 165.011L91.8446 165.025C92.5375 168.142 94.6476 169.804 96.9784 169.286ZM112.649 168.594C108.331 169.554 104.849 167.191 103.775 162.358L103.769 162.33C102.701 157.525 104.885 153.918 109.161 152.968C113.451 152.014 116.969 154.339 118.04 159.158L118.046 159.186C119.124 164.034 116.953 167.637 112.649 168.594ZM112.088 166.003C114.505 165.465 115.623 163.206 114.886 159.889L114.88 159.86C114.149 156.571 112.153 155.019 109.736 155.556C107.363 156.084 106.198 158.338 106.929 161.627L106.935 161.656C107.676 164.988 109.672 166.54 112.088 166.003ZM121.227 166.372L117.884 151.329L120.972 150.643L121.545 153.217L121.616 153.201C121.711 151.334 122.725 149.953 124.441 149.572C124.884 149.473 125.286 149.459 125.539 149.448L126.178 152.322C125.912 152.276 125.353 152.325 124.752 152.459C122.765 152.9 121.824 154.475 122.323 156.72L124.316 165.686L121.227 166.372ZM135.959 163.413C132.985 164.074 131.275 163.134 130.608 160.131L128.691 151.508L126.532 151.988L125.985 149.528L128.144 149.049L127.274 145.13L130.434 144.428L131.305 148.346L134.122 147.72L134.668 150.179L131.851 150.806L133.727 159.242C134.067 160.772 134.855 161.077 136.156 160.788C136.485 160.715 136.75 160.626 136.973 160.547L137.503 162.935C137.159 163.071 136.588 163.273 135.959 163.413ZM143.396 161.73C140.394 162.397 137.967 161.001 137.367 158.298L137.36 158.27C136.779 155.653 138.453 153.6 141.966 152.594L146.002 151.442L145.751 150.312C145.382 148.654 144.087 147.891 142.171 148.317C140.383 148.714 139.47 149.803 139.479 151.061L139.479 151.196L136.562 151.844L136.542 151.684C136.181 149.048 137.984 146.561 141.688 145.738C145.363 144.921 148.126 146.348 148.796 149.365L151.101 159.732L147.998 160.422L147.47 158.048L147.413 158.061C146.9 159.871 145.384 161.288 143.396 161.73ZM140.468 157.534C140.76 158.849 142.031 159.437 143.69 159.068C145.864 158.585 147.181 156.747 146.745 154.788L146.485 153.615L142.861 154.661C141.027 155.189 140.179 156.233 140.462 157.505L140.468 157.534ZM153.225 159.26L149.881 144.217L152.97 143.531L153.475 145.804L153.547 145.788C153.993 144.083 155.309 142.711 157.582 142.205C160.886 141.471 163.261 143.179 164.03 146.639L166.195 156.377L163.092 157.067L161.057 147.915C160.555 145.656 159.214 144.619 157.069 145.095C154.896 145.578 153.844 147.463 154.365 149.808L156.314 158.574L153.225 159.26ZM173.648 155.036C170.674 155.697 168.964 154.756 168.296 151.753L166.38 143.131L164.221 143.611L163.674 141.151L165.833 140.671L164.962 136.753L168.123 136.051L168.993 139.969L171.81 139.343L172.357 141.802L169.54 142.428L171.415 150.865C171.755 152.395 172.544 152.7 173.845 152.411C174.174 152.338 174.439 152.249 174.661 152.169L175.192 154.557C174.847 154.694 174.277 154.896 173.648 155.036ZM182.951 152.968C178.532 153.95 175.187 151.527 174.132 146.78L174.129 146.766C173.083 142.061 175.101 138.311 179.319 137.374C183.538 136.436 186.8 138.892 187.804 143.411L188.036 144.455L177.383 146.823C178.073 149.656 180 150.968 182.459 150.421C184.29 150.014 185.295 148.8 185.43 147.585L185.448 147.461L188.379 146.809L188.386 146.973C188.43 149.469 186.597 152.158 182.951 152.968ZM179.896 139.902C177.894 140.347 176.652 142.048 176.94 144.625L184.49 142.947C183.654 140.402 181.912 139.453 179.896 139.902ZM201.813 148.775C197.981 149.627 194.848 147.142 193.783 142.352L193.78 142.338C192.715 137.548 194.536 133.992 198.311 133.152C200.441 132.679 202.396 133.37 203.691 134.943L203.748 134.93L201.936 126.779L205.039 126.09L209.626 146.724L206.523 147.414L205.957 144.868L205.9 144.881C205.39 146.84 203.972 148.296 201.813 148.775ZM202.037 145.935C204.368 145.417 205.561 143.02 204.865 139.889L204.862 139.875C204.169 136.757 202.059 135.095 199.742 135.61C197.311 136.151 196.234 138.461 196.94 141.635L196.943 141.65C197.655 144.853 199.592 146.478 202.037 145.935ZM218.409 145.087C213.99 146.069 210.645 143.646 209.59 138.899L209.587 138.884C208.541 134.18 210.559 130.43 214.777 129.492C218.996 128.555 222.258 131.011 223.262 135.53L223.494 136.574L212.841 138.941C213.531 141.774 215.458 143.087 217.918 142.54C219.748 142.133 220.754 140.919 220.889 139.704L220.906 139.58L223.837 138.928L223.844 139.092C223.888 141.588 222.055 144.276 218.409 145.087ZM215.354 132.02C213.352 132.465 212.11 134.167 212.398 136.744L219.948 135.066C219.112 132.521 217.37 131.572 215.354 132.02ZM231.699 141.818L227.113 121.183L230.202 120.497L234.788 141.131L231.699 141.818ZM241.563 139.91C238.56 140.578 236.134 139.181 235.533 136.479L235.527 136.45C234.945 133.833 236.62 131.78 240.132 130.774L244.168 129.622L243.917 128.493C243.548 126.834 242.253 126.071 240.337 126.497C238.55 126.895 237.636 127.983 237.646 129.241L237.646 129.376L234.729 130.025L234.708 129.864C234.347 127.228 236.151 124.742 239.854 123.919C243.529 123.102 246.292 124.528 246.963 127.546L249.267 137.913L246.164 138.602L245.636 136.229L245.579 136.241C245.066 138.051 243.55 139.468 241.563 139.91ZM238.634 135.714C238.927 137.03 240.198 137.618 241.857 137.249C244.03 136.766 245.347 134.927 244.912 132.968L244.651 131.796L241.027 132.842C239.194 133.369 238.345 134.413 238.628 135.686L238.634 135.714ZM257.574 141.318L253.118 121.271L256.206 120.584L256.782 123.172L256.853 123.156C257.357 121.169 258.774 119.713 260.919 119.237C264.751 118.385 267.878 120.841 268.946 125.646L268.949 125.66C270.014 130.45 268.211 134.017 264.436 134.856C262.305 135.33 260.333 134.628 259.059 133.08L258.988 133.096L260.663 140.632L257.574 141.318ZM263.001 132.384C265.432 131.844 266.509 129.534 265.803 126.359L265.8 126.345C265.088 123.142 263.123 121.523 260.706 122.06C258.361 122.581 257.168 124.977 257.864 128.109L257.867 128.123C258.56 131.24 260.67 132.902 263.001 132.384ZM276.621 132.118C273.618 132.785 271.191 131.389 270.591 128.686L270.584 128.658C270.003 126.041 271.677 123.988 275.19 122.982L279.226 121.83L278.975 120.7C278.606 119.042 277.311 118.279 275.395 118.705C273.608 119.102 272.694 120.191 272.704 121.449L272.704 121.584L269.786 122.232L269.766 122.072C269.405 119.436 271.208 116.95 274.912 116.126C278.587 115.309 281.35 116.736 282.02 119.753L284.325 130.12L281.222 130.81L280.694 128.436L280.637 128.449C280.124 130.259 278.608 131.676 276.621 132.118ZM273.692 127.922C273.985 129.238 275.256 129.825 276.914 129.457C279.088 128.974 280.405 127.135 279.97 125.176L279.709 124.004L276.085 125.049C274.251 125.577 273.403 126.621 273.686 127.893L273.692 127.922ZM286.449 129.648L283.105 114.605L286.194 113.919L286.766 116.493L286.838 116.477C286.933 114.61 287.947 113.229 289.663 112.848C290.106 112.749 290.508 112.735 290.76 112.724L291.399 115.598C291.134 115.552 290.575 115.601 289.974 115.735C287.986 116.176 287.046 117.751 287.545 119.996L289.538 128.962L286.449 129.648ZM301.181 126.689C298.207 127.35 296.497 126.41 295.829 123.407L293.913 114.784L291.754 115.264L291.207 112.804L293.366 112.325L292.495 108.407L295.656 107.704L296.526 111.622L299.343 110.996L299.89 113.456L297.073 114.082L298.948 122.518C299.288 124.048 300.076 124.353 301.378 124.064C301.707 123.991 301.972 123.902 302.194 123.823L302.725 126.211C302.38 126.347 301.81 126.549 301.181 126.689ZM315.125 123.59C311.292 124.441 308.159 121.957 307.094 117.166L307.091 117.152C306.026 112.362 307.847 108.806 311.622 107.967C313.753 107.493 315.707 108.184 317.002 109.757L317.059 109.744L315.247 101.594L318.35 100.904L322.937 121.538L319.834 122.228L319.268 119.683L319.211 119.695C318.701 121.654 317.284 123.11 315.125 123.59ZM315.348 120.749C317.679 120.231 318.872 117.835 318.176 114.703L318.173 114.689C317.48 111.572 315.37 109.91 313.054 110.425C310.623 110.965 309.546 113.275 310.251 116.45L310.254 116.464C310.966 119.667 312.903 121.292 315.348 120.749ZM331.72 119.901C327.301 120.883 323.957 118.46 322.902 113.713L322.898 113.699C321.853 108.994 323.87 105.244 328.089 104.307C332.307 103.369 335.569 105.825 336.573 110.344L336.805 111.388L326.152 113.756C326.842 116.588 328.769 117.901 331.229 117.354C333.059 116.947 334.065 115.733 334.2 114.518L334.217 114.394L337.149 113.742L337.155 113.906C337.2 116.402 335.366 119.091 331.72 119.901ZM328.666 106.834C326.664 107.279 325.421 108.981 325.709 111.558L333.259 109.88C332.423 107.335 330.682 106.386 328.666 106.834ZM349.029 115.739L340.266 101.9L343.554 101.169L350.003 112.356L350.074 112.34L351.176 99.4751L354.393 98.76L352.346 115.001L349.029 115.739ZM364.59 112.595C360.271 113.555 356.79 111.192 355.716 106.359L355.709 106.331C354.642 101.526 356.826 97.9192 361.102 96.9688C365.391 96.0153 368.909 98.3397 369.98 103.159L369.987 103.187C371.064 108.035 368.894 111.638 364.59 112.595ZM364.029 110.004C366.445 109.466 367.564 107.207 366.827 103.89L366.82 103.861C366.089 100.572 364.093 99.0199 361.677 99.557C359.303 100.085 358.139 102.339 358.87 105.628L358.876 105.657C359.617 108.989 361.612 110.541 364.029 110.004ZM378.511 109.501C375.537 110.162 373.827 109.221 373.16 106.218L371.243 97.5958L369.084 98.0757L368.537 95.6162L370.697 95.1363L369.826 91.2182L372.986 90.5158L373.857 94.4339L376.674 93.8077L377.22 96.2672L374.403 96.8934L376.279 105.33C376.619 106.86 377.407 107.165 378.708 106.876C379.037 106.803 379.302 106.714 379.525 106.634L380.056 109.022C379.711 109.159 379.14 109.361 378.511 109.501ZM381.698 108.477L378.355 93.4341L381.443 92.7476L382.016 95.3215L382.087 95.3056C382.182 93.4387 383.196 92.0579 384.912 91.6765C385.355 91.578 385.757 91.5637 386.01 91.5525L386.649 94.4267C386.383 94.3807 385.824 94.4299 385.223 94.5634C383.236 95.0052 382.295 96.5798 382.794 98.8248L384.787 107.791L381.698 108.477ZM396.259 105.556C391.84 106.538 388.495 104.115 387.44 99.3678L387.437 99.3535C386.391 94.649 388.409 90.8992 392.627 89.9616C396.846 89.024 400.108 91.4802 401.112 95.9988L401.344 97.0427L390.691 99.4106C391.381 102.243 393.308 103.556 395.767 103.009C397.598 102.602 398.604 101.388 398.738 100.173L398.756 100.049L401.687 99.3973L401.694 99.561C401.738 102.057 399.905 104.745 396.259 105.556ZM393.204 92.4894C391.202 92.9344 389.96 94.6361 390.248 97.2132L397.798 95.535C396.962 92.9897 395.22 92.0413 393.204 92.4894ZM75.965 213.626C71.6465 214.586 68.1652 212.224 67.091 207.391L67.0846 207.362C66.0167 202.557 68.2012 198.951 72.4767 198C76.7666 197.047 80.2844 199.371 81.3555 204.19L81.3618 204.219C82.4393 209.066 80.2691 212.67 75.965 213.626ZM75.404 211.035C77.8206 210.498 78.939 208.238 78.2016 204.921L78.1953 204.892C77.4643 201.604 75.4686 200.051 73.052 200.588C70.6783 201.116 69.5138 203.371 70.2448 206.66L70.2511 206.688C70.9917 210.02 72.9874 211.572 75.404 211.035ZM84.5431 211.405L81.1995 196.362L84.2882 195.675L84.8603 198.249L84.9318 198.233C85.027 196.366 86.0406 194.985 87.7566 194.604C88.1998 194.505 88.6018 194.491 88.8544 194.48L89.4933 197.354C89.228 197.308 88.6687 197.357 88.0681 197.491C86.0805 197.933 85.14 199.507 85.639 201.752L87.6318 210.718L84.5431 211.405ZM100.387 213.45C96.5264 214.308 93.6839 213.064 92.7146 210.864L92.6717 210.738L95.7318 210.058L95.8144 210.16C96.442 211.026 97.8895 211.394 99.8199 210.965C102.279 210.419 103.345 208.801 102.878 206.699L102.421 204.64L102.349 204.656C101.853 206.477 100.369 207.902 98.2103 208.382C94.4352 209.221 91.2892 206.814 90.2467 202.124L90.2435 202.109C89.1947 197.391 91.0534 193.871 94.8714 193.023C96.9877 192.552 98.9007 193.327 100.166 194.832L100.237 194.816L99.6681 192.257L102.771 191.567L106.023 206.195C106.785 209.627 104.634 212.506 100.387 213.45ZM98.5232 205.671C100.883 205.147 102.014 202.81 101.324 199.707L101.321 199.692C100.634 196.604 98.6053 194.969 96.2602 195.49C93.815 196.034 92.7235 198.347 93.4132 201.45L93.4164 201.464C94.1156 204.61 96.0779 206.215 98.5232 205.671ZM112.775 205.415C109.772 206.082 107.346 204.686 106.745 201.983L106.739 201.954C106.157 199.338 107.832 197.285 111.345 196.279L115.38 195.127L115.129 193.997C114.761 192.338 113.466 191.576 111.55 192.002C109.762 192.399 108.849 193.487 108.858 194.746L108.858 194.881L105.941 195.529L105.92 195.369C105.56 192.733 107.363 190.246 111.066 189.423C114.741 188.606 117.504 190.033 118.175 193.05L120.479 203.417L117.376 204.107L116.849 201.733L116.792 201.746C116.278 203.555 114.763 204.973 112.775 205.415ZM109.847 201.219C110.139 202.534 111.41 203.122 113.069 202.753C115.242 202.27 116.56 200.432 116.124 198.473L115.863 197.3L112.239 198.346C110.406 198.873 109.557 199.917 109.84 201.19L109.847 201.219ZM122.604 202.945L119.26 187.902L122.349 187.215L122.854 189.489L122.926 189.473C123.372 187.768 124.688 186.395 126.961 185.89C130.264 185.156 132.64 186.864 133.409 190.324L135.573 200.062L132.47 200.752L130.436 191.6C129.934 189.341 128.593 188.303 126.448 188.78C124.275 189.263 123.223 191.148 123.744 193.493L125.692 202.258L122.604 202.945ZM135.498 181.862C134.497 182.084 133.518 181.461 133.302 180.489C133.083 179.502 133.705 178.524 134.706 178.301C135.722 178.075 136.686 178.701 136.905 179.688C137.122 180.66 136.513 181.636 135.498 181.862ZM137.812 199.564L134.468 184.521L137.557 183.835L140.901 198.878L137.812 199.564ZM148.912 197.412C145.151 198.248 142.536 196.879 141.611 194.203L141.568 194.078L144.628 193.398L144.688 193.534C145.283 194.858 146.493 195.444 148.395 195.021C150.254 194.608 151.198 193.588 150.928 192.373L150.925 192.358C150.708 191.386 150.041 190.949 148.339 190.922L145.756 190.911C142.75 190.889 141.029 189.831 140.543 187.643L140.54 187.629C139.942 184.94 141.877 182.575 145.338 181.805C148.898 181.014 151.485 182.525 152.211 185.05L152.264 185.218L149.361 185.863L149.324 185.766C148.846 184.492 147.613 183.806 145.868 184.193C144.21 184.562 143.341 185.581 143.608 186.782L143.611 186.796C143.817 187.726 144.572 188.218 146.274 188.245L148.843 188.259C152.076 188.291 153.519 189.246 153.999 191.405L154.002 191.419C154.612 194.165 152.458 196.624 148.912 197.412ZM156.489 195.413L153.145 180.37L156.234 179.684L156.752 182.014L156.823 181.999C157.117 180.283 158.415 178.899 160.389 178.46C162.462 177.999 164.216 178.735 165.236 180.489L165.308 180.473C165.673 178.471 167.195 176.947 169.34 176.47C172.314 175.809 174.698 177.35 175.368 180.368L177.666 190.706L174.563 191.396L172.431 181.801C171.995 179.842 170.7 178.944 168.87 179.351C167.04 179.758 166.072 181.413 166.495 183.315L168.586 192.724L165.555 193.398L163.371 183.574C162.983 181.83 161.634 180.959 159.89 181.347C158.06 181.754 157.079 183.487 157.512 185.432L159.578 194.727L156.489 195.413ZM186.264 189.11C181.845 190.092 178.5 187.67 177.445 182.922L177.442 182.908C176.396 178.203 178.414 174.454 182.632 173.516C186.851 172.578 190.113 175.034 191.117 179.553L191.349 180.597L180.696 182.965C181.386 185.798 183.313 187.11 185.773 186.563C187.603 186.157 188.609 184.943 188.744 183.727L188.761 183.603L191.692 182.952L191.699 183.115C191.743 185.611 189.91 188.3 186.264 189.11ZM183.209 176.044C181.207 176.489 179.965 178.19 180.253 180.767L187.803 179.089C186.967 176.544 185.225 175.596 183.209 176.044Z" fill="white"/>
<rect x="74.4141" y="244.388" width="290" height="81" rx="40.5" transform="rotate(-12.5315 74.4141 244.388)" fill="white"/>
<path d="M145.867 280.751L141.28 260.117L154.636 257.148L155.326 260.251L145.659 262.4L146.896 267.962L156.033 265.931L156.697 268.92L147.56 270.951L148.866 276.828L158.533 274.679L159.222 277.782L145.867 280.751ZM161.189 277.345L157.82 262.188L161.381 261.396L161.909 263.77L161.98 263.754C162.404 261.949 163.713 260.548 166.016 260.036C169.347 259.295 171.726 261.018 172.508 264.535L174.688 274.345L171.128 275.136L169.106 266.042C168.626 263.882 167.355 262.889 165.325 263.341C163.28 263.795 162.309 265.572 162.795 267.759L164.75 276.554L161.189 277.345ZM187.64 271.781C183.665 272.664 180.972 271.282 180.031 268.535L179.988 268.41L183.492 267.631L183.549 267.753C184.11 268.994 185.268 269.547 187.07 269.147C188.8 268.762 189.688 267.829 189.44 266.714L189.437 266.7C189.234 265.785 188.59 265.387 186.938 265.379L184.297 265.381C181.251 265.383 179.478 264.291 178.979 262.046L178.976 262.032C178.359 259.258 180.36 256.848 184.02 256.034C187.795 255.195 190.458 256.779 191.169 259.367L191.218 259.521L187.9 260.259L187.861 260.147C187.433 258.967 186.264 258.296 184.605 258.665C183.032 259.015 182.208 259.963 182.455 261.079L182.459 261.093C182.653 261.965 183.366 262.407 185.018 262.415L187.673 262.41C190.961 262.414 192.449 263.374 192.939 265.576L192.942 265.591C193.578 268.45 191.358 270.955 187.64 271.781ZM199.865 269.019C196.833 269.693 194.372 268.274 193.772 265.571L193.765 265.543C193.168 262.854 194.896 260.774 198.52 259.729L202.427 258.605L202.195 257.561C201.855 256.031 200.648 255.324 198.846 255.725C197.158 256.1 196.304 257.115 196.323 258.281L196.323 258.417L193.02 259.151L192.996 258.976C192.613 256.24 194.495 253.706 198.342 252.851C202.131 252.008 205.022 253.467 205.699 256.513L208.016 266.937L204.455 267.728L203.937 265.398L203.851 265.417C203.332 267.198 201.867 268.574 199.865 269.019ZM197.286 264.64C197.563 265.884 198.761 266.413 200.319 266.067C202.364 265.612 203.606 263.91 203.206 262.109L202.952 260.965L199.539 261.948C197.805 262.454 197.016 263.425 197.283 264.626L197.286 264.64ZM214.044 265.597L205.312 251.632L209.102 250.789L215.254 261.862L215.34 261.843L216.209 249.21L219.926 248.383L217.962 264.726L214.044 265.597ZM230.291 262.301C225.83 263.293 222.294 260.957 221.204 256.052L221.198 256.024C220.117 251.162 222.367 247.511 226.771 246.532C231.19 245.55 234.782 247.872 235.869 252.763L235.875 252.791C236.969 257.71 234.738 261.312 230.291 262.301ZM229.667 259.424C231.912 258.925 232.949 256.773 232.243 253.599L232.237 253.57C231.535 250.41 229.672 248.918 227.413 249.42C225.197 249.913 224.131 252.071 224.83 255.216L224.836 255.245C225.545 258.434 227.393 259.929 229.667 259.424ZM237.005 242.306C235.889 242.554 234.82 241.862 234.585 240.803C234.343 239.717 235.022 238.651 236.137 238.403C237.252 238.155 238.304 238.836 238.546 239.923C238.781 240.981 238.12 242.058 237.005 242.306ZM239.069 260.035L235.7 244.877L239.261 244.086L242.63 259.243L239.069 260.035ZM244.783 258.765L241.414 243.607L244.974 242.816L245.556 245.433L245.628 245.417C245.693 243.481 246.706 242.101 248.451 241.713C248.894 241.614 249.325 241.594 249.612 241.605L250.327 244.822C250.002 244.775 249.439 244.81 248.839 244.943C246.822 245.391 245.89 246.934 246.389 249.179L248.344 257.973L244.783 258.765ZM260.068 260.619L255.586 240.457L259.147 239.666L259.729 242.282L259.8 242.267C260.269 240.257 261.68 238.773 263.853 238.29C267.7 237.435 270.798 239.897 271.885 244.788L271.888 244.802C272.969 249.664 271.205 253.207 267.402 254.052C265.242 254.532 263.271 253.83 262.019 252.248L261.947 252.264L263.628 259.828L260.068 260.619ZM265.633 251.294C267.907 250.789 268.92 248.598 268.256 245.609L268.253 245.595C267.579 242.563 265.736 241.022 263.462 241.528C261.26 242.017 260.142 244.276 260.803 247.251L260.806 247.265C261.464 250.225 263.431 251.784 265.633 251.294ZM275.079 252.031L270.493 231.397L274.053 230.605L278.64 251.239L275.079 252.031ZM286.021 249.914C282.69 250.654 280.311 248.932 279.529 245.414L277.352 235.619L280.912 234.828L282.934 243.922C283.411 246.067 284.682 247.06 286.712 246.609C288.757 246.154 289.731 244.392 289.242 242.19L287.29 233.41L290.851 232.619L294.22 247.776L290.659 248.568L290.131 246.194L290.06 246.21C289.633 248.001 288.309 249.405 286.021 249.914ZM302.259 246.304C298.284 247.188 295.591 245.806 294.65 243.059L294.607 242.933L298.111 242.155L298.168 242.277C298.729 243.518 299.887 244.071 301.689 243.67C303.419 243.286 304.307 242.353 304.059 241.238L304.056 241.223C303.853 240.308 303.209 239.911 301.557 239.903L298.916 239.905C295.87 239.906 294.097 238.815 293.598 236.57L293.595 236.556C292.978 233.782 294.978 231.371 298.639 230.558C302.414 229.719 305.077 231.302 305.787 233.891L305.837 234.045L302.519 234.782L302.48 234.671C302.052 233.49 300.883 232.82 299.224 233.189C297.651 233.538 296.826 234.487 297.074 235.602L297.077 235.617C297.271 236.489 297.985 236.93 299.637 236.938L302.292 236.933C305.579 236.938 307.068 237.898 307.558 240.1L307.561 240.114C308.197 242.974 305.977 245.478 302.259 246.304Z" fill="#F482F4"/>
</svg>
